<mxfile host="app.diagrams.net" modified="2023-09-04T17:49:41.083Z" agent="Mozilla/5.0 (Windows NT 10.0; Win64; x64) AppleWebKit/537.36 (KHTML, like Gecko) Chrome/116.0.0.0 Safari/537.36 Edg/116.0.1938.69" etag="t6H6rgZQdYOWkzL7bmpN" version="21.7.2" type="github">
  <diagram name="Page-1" id="Y-RsnVMIKMuv8frL5ZEY">
    <mxGraphModel dx="1556" dy="871" grid="1" gridSize="10" guides="1" tooltips="1" connect="1" arrows="1" fold="1" page="1" pageScale="1" pageWidth="850" pageHeight="1100" math="0" shadow="0">
      <root>
        <mxCell id="0" />
        <mxCell id="1" parent="0" />
        <mxCell id="eJFCrXcZ_60GVSOa78Gy-30" style="edgeStyle=orthogonalEdgeStyle;rounded=0;orthogonalLoop=1;jettySize=auto;html=1;exitX=1;exitY=0.5;exitDx=0;exitDy=0;entryX=0;entryY=0.5;entryDx=0;entryDy=0;" edge="1" parent="1" source="eJFCrXcZ_60GVSOa78Gy-1" target="eJFCrXcZ_60GVSOa78Gy-4">
          <mxGeometry relative="1" as="geometry" />
        </mxCell>
        <mxCell id="eJFCrXcZ_60GVSOa78Gy-1" value="&lt;font style=&quot;font-size: 15px;&quot;&gt;Início&lt;/font&gt;" style="rounded=1;whiteSpace=wrap;html=1;" vertex="1" parent="1">
          <mxGeometry x="40" y="180" width="160" height="60" as="geometry" />
        </mxCell>
        <mxCell id="eJFCrXcZ_60GVSOa78Gy-3" value="&lt;font style=&quot;font-size: 15px;&quot;&gt;Fim&lt;/font&gt;" style="rounded=1;whiteSpace=wrap;html=1;" vertex="1" parent="1">
          <mxGeometry x="490" y="750" width="160" height="60" as="geometry" />
        </mxCell>
        <mxCell id="eJFCrXcZ_60GVSOa78Gy-31" style="edgeStyle=orthogonalEdgeStyle;rounded=0;orthogonalLoop=1;jettySize=auto;html=1;exitX=0.5;exitY=1;exitDx=0;exitDy=0;entryX=0.5;entryY=1;entryDx=0;entryDy=0;" edge="1" parent="1" source="eJFCrXcZ_60GVSOa78Gy-4" target="eJFCrXcZ_60GVSOa78Gy-3">
          <mxGeometry relative="1" as="geometry">
            <Array as="points">
              <mxPoint x="330" y="300" />
              <mxPoint x="100" y="300" />
              <mxPoint x="100" y="860" />
              <mxPoint x="570" y="860" />
            </Array>
          </mxGeometry>
        </mxCell>
        <mxCell id="eJFCrXcZ_60GVSOa78Gy-32" style="edgeStyle=orthogonalEdgeStyle;rounded=0;orthogonalLoop=1;jettySize=auto;html=1;exitX=0.5;exitY=0;exitDx=0;exitDy=0;entryX=0.5;entryY=1;entryDx=0;entryDy=0;" edge="1" parent="1" source="eJFCrXcZ_60GVSOa78Gy-4" target="eJFCrXcZ_60GVSOa78Gy-26">
          <mxGeometry relative="1" as="geometry" />
        </mxCell>
        <mxCell id="eJFCrXcZ_60GVSOa78Gy-4" value="&lt;font style=&quot;font-size: 15px;&quot;&gt;Tem saldo na conta?&lt;/font&gt;" style="rhombus;whiteSpace=wrap;html=1;" vertex="1" parent="1">
          <mxGeometry x="240" y="155" width="180" height="110" as="geometry" />
        </mxCell>
        <mxCell id="eJFCrXcZ_60GVSOa78Gy-34" style="edgeStyle=orthogonalEdgeStyle;rounded=0;orthogonalLoop=1;jettySize=auto;html=1;exitX=1;exitY=0.5;exitDx=0;exitDy=0;entryX=0;entryY=0.5;entryDx=0;entryDy=0;" edge="1" parent="1" source="eJFCrXcZ_60GVSOa78Gy-5" target="eJFCrXcZ_60GVSOa78Gy-18">
          <mxGeometry relative="1" as="geometry" />
        </mxCell>
        <mxCell id="eJFCrXcZ_60GVSOa78Gy-5" value="&lt;span style=&quot;font-size: 15px;&quot;&gt;Cliente realiza pedido com a atendente&lt;/span&gt;" style="rounded=0;whiteSpace=wrap;html=1;" vertex="1" parent="1">
          <mxGeometry x="500" y="25" width="160" height="80" as="geometry" />
        </mxCell>
        <mxCell id="eJFCrXcZ_60GVSOa78Gy-65" value="" style="edgeStyle=orthogonalEdgeStyle;rounded=0;orthogonalLoop=1;jettySize=auto;html=1;" edge="1" parent="1" source="eJFCrXcZ_60GVSOa78Gy-6" target="eJFCrXcZ_60GVSOa78Gy-63">
          <mxGeometry relative="1" as="geometry" />
        </mxCell>
        <mxCell id="eJFCrXcZ_60GVSOa78Gy-6" value="&lt;span style=&quot;font-size: 15px;&quot;&gt;Pizza começa a ser preparada&lt;/span&gt;" style="rounded=0;whiteSpace=wrap;html=1;" vertex="1" parent="1">
          <mxGeometry x="780" y="330" width="160" height="60" as="geometry" />
        </mxCell>
        <mxCell id="eJFCrXcZ_60GVSOa78Gy-64" value="" style="edgeStyle=orthogonalEdgeStyle;rounded=0;orthogonalLoop=1;jettySize=auto;html=1;" edge="1" parent="1" source="eJFCrXcZ_60GVSOa78Gy-10" target="eJFCrXcZ_60GVSOa78Gy-6">
          <mxGeometry relative="1" as="geometry" />
        </mxCell>
        <mxCell id="eJFCrXcZ_60GVSOa78Gy-70" style="edgeStyle=orthogonalEdgeStyle;rounded=0;orthogonalLoop=1;jettySize=auto;html=1;exitX=0;exitY=0.5;exitDx=0;exitDy=0;entryX=1;entryY=0.5;entryDx=0;entryDy=0;" edge="1" parent="1" source="eJFCrXcZ_60GVSOa78Gy-10" target="eJFCrXcZ_60GVSOa78Gy-68">
          <mxGeometry relative="1" as="geometry" />
        </mxCell>
        <mxCell id="eJFCrXcZ_60GVSOa78Gy-10" value="&lt;span style=&quot;font-size: 15px;&quot;&gt;O pagamento será feito em dinheiro?&lt;/span&gt;" style="rhombus;whiteSpace=wrap;html=1;" vertex="1" parent="1">
          <mxGeometry x="740" y="150" width="240" height="140" as="geometry" />
        </mxCell>
        <mxCell id="eJFCrXcZ_60GVSOa78Gy-43" style="edgeStyle=orthogonalEdgeStyle;rounded=0;orthogonalLoop=1;jettySize=auto;html=1;exitX=0.5;exitY=1;exitDx=0;exitDy=0;entryX=0.5;entryY=0;entryDx=0;entryDy=0;" edge="1" parent="1" source="eJFCrXcZ_60GVSOa78Gy-17" target="eJFCrXcZ_60GVSOa78Gy-27">
          <mxGeometry relative="1" as="geometry" />
        </mxCell>
        <mxCell id="eJFCrXcZ_60GVSOa78Gy-17" value="&lt;span style=&quot;font-size: 15px;&quot;&gt;Entregador leva uma maquininha e a pizza para o cliente&lt;/span&gt;" style="rounded=0;whiteSpace=wrap;html=1;" vertex="1" parent="1">
          <mxGeometry x="780" y="540" width="160" height="80" as="geometry" />
        </mxCell>
        <mxCell id="eJFCrXcZ_60GVSOa78Gy-62" value="" style="edgeStyle=orthogonalEdgeStyle;rounded=0;orthogonalLoop=1;jettySize=auto;html=1;" edge="1" parent="1" source="eJFCrXcZ_60GVSOa78Gy-18" target="eJFCrXcZ_60GVSOa78Gy-10">
          <mxGeometry relative="1" as="geometry" />
        </mxCell>
        <mxCell id="eJFCrXcZ_60GVSOa78Gy-18" value="&lt;span style=&quot;font-size: 15px;&quot;&gt;Pedido do cliente é registrado&lt;/span&gt;" style="rounded=0;whiteSpace=wrap;html=1;" vertex="1" parent="1">
          <mxGeometry x="780" y="25" width="160" height="80" as="geometry" />
        </mxCell>
        <mxCell id="eJFCrXcZ_60GVSOa78Gy-47" style="edgeStyle=orthogonalEdgeStyle;rounded=0;orthogonalLoop=1;jettySize=auto;html=1;exitX=0.5;exitY=1;exitDx=0;exitDy=0;entryX=0.5;entryY=0;entryDx=0;entryDy=0;" edge="1" parent="1" source="eJFCrXcZ_60GVSOa78Gy-24" target="eJFCrXcZ_60GVSOa78Gy-28">
          <mxGeometry relative="1" as="geometry" />
        </mxCell>
        <mxCell id="eJFCrXcZ_60GVSOa78Gy-24" value="&lt;span style=&quot;font-size: 15px;&quot;&gt;Entregador leva o troco e a pizza para o cliente&lt;/span&gt;" style="rounded=0;whiteSpace=wrap;html=1;" vertex="1" parent="1">
          <mxGeometry x="240" y="360" width="160" height="80" as="geometry" />
        </mxCell>
        <mxCell id="eJFCrXcZ_60GVSOa78Gy-46" style="edgeStyle=orthogonalEdgeStyle;rounded=0;orthogonalLoop=1;jettySize=auto;html=1;exitX=0;exitY=0.5;exitDx=0;exitDy=0;entryX=1;entryY=0.5;entryDx=0;entryDy=0;" edge="1" parent="1" source="eJFCrXcZ_60GVSOa78Gy-25" target="eJFCrXcZ_60GVSOa78Gy-24">
          <mxGeometry relative="1" as="geometry" />
        </mxCell>
        <mxCell id="eJFCrXcZ_60GVSOa78Gy-48" style="edgeStyle=orthogonalEdgeStyle;rounded=0;orthogonalLoop=1;jettySize=auto;html=1;exitX=0.5;exitY=1;exitDx=0;exitDy=0;entryX=0.5;entryY=0;entryDx=0;entryDy=0;" edge="1" parent="1" source="eJFCrXcZ_60GVSOa78Gy-25" target="eJFCrXcZ_60GVSOa78Gy-29">
          <mxGeometry relative="1" as="geometry" />
        </mxCell>
        <mxCell id="eJFCrXcZ_60GVSOa78Gy-25" value="&lt;span style=&quot;font-size: 15px;&quot;&gt;Há necessidade do entregador levar troco?&lt;/span&gt;" style="rhombus;whiteSpace=wrap;html=1;" vertex="1" parent="1">
          <mxGeometry x="470" y="345" width="200" height="110" as="geometry" />
        </mxCell>
        <mxCell id="eJFCrXcZ_60GVSOa78Gy-33" style="edgeStyle=orthogonalEdgeStyle;rounded=0;orthogonalLoop=1;jettySize=auto;html=1;exitX=1;exitY=0.5;exitDx=0;exitDy=0;entryX=0;entryY=0.5;entryDx=0;entryDy=0;" edge="1" parent="1" source="eJFCrXcZ_60GVSOa78Gy-26" target="eJFCrXcZ_60GVSOa78Gy-5">
          <mxGeometry relative="1" as="geometry" />
        </mxCell>
        <mxCell id="eJFCrXcZ_60GVSOa78Gy-26" value="&lt;span style=&quot;font-size: 15px;&quot;&gt;Ligar para a pizzaria&lt;/span&gt;" style="rounded=0;whiteSpace=wrap;html=1;" vertex="1" parent="1">
          <mxGeometry x="250" y="25" width="160" height="80" as="geometry" />
        </mxCell>
        <mxCell id="eJFCrXcZ_60GVSOa78Gy-44" style="edgeStyle=orthogonalEdgeStyle;rounded=0;orthogonalLoop=1;jettySize=auto;html=1;exitX=0;exitY=0.5;exitDx=0;exitDy=0;entryX=1;entryY=0.5;entryDx=0;entryDy=0;" edge="1" parent="1" source="eJFCrXcZ_60GVSOa78Gy-27" target="eJFCrXcZ_60GVSOa78Gy-3">
          <mxGeometry relative="1" as="geometry" />
        </mxCell>
        <mxCell id="eJFCrXcZ_60GVSOa78Gy-27" value="&lt;span style=&quot;font-size: 15px;&quot;&gt;Cliente paga com cartão e recebe a pizza&lt;/span&gt;" style="rounded=0;whiteSpace=wrap;html=1;" vertex="1" parent="1">
          <mxGeometry x="780" y="710" width="160" height="80" as="geometry" />
        </mxCell>
        <mxCell id="eJFCrXcZ_60GVSOa78Gy-49" style="edgeStyle=orthogonalEdgeStyle;rounded=0;orthogonalLoop=1;jettySize=auto;html=1;exitX=0.5;exitY=1;exitDx=0;exitDy=0;entryX=0;entryY=0.5;entryDx=0;entryDy=0;" edge="1" parent="1" source="eJFCrXcZ_60GVSOa78Gy-28" target="eJFCrXcZ_60GVSOa78Gy-3">
          <mxGeometry relative="1" as="geometry">
            <Array as="points">
              <mxPoint x="320" y="800" />
            </Array>
          </mxGeometry>
        </mxCell>
        <mxCell id="eJFCrXcZ_60GVSOa78Gy-28" value="&lt;span style=&quot;font-size: 15px;&quot;&gt;Cliente paga em dinheiro e recebe o troco e a pizza&lt;/span&gt;" style="rounded=0;whiteSpace=wrap;html=1;" vertex="1" parent="1">
          <mxGeometry x="240" y="580" width="160" height="80" as="geometry" />
        </mxCell>
        <mxCell id="eJFCrXcZ_60GVSOa78Gy-73" value="" style="edgeStyle=orthogonalEdgeStyle;rounded=0;orthogonalLoop=1;jettySize=auto;html=1;" edge="1" parent="1" source="eJFCrXcZ_60GVSOa78Gy-29" target="eJFCrXcZ_60GVSOa78Gy-59">
          <mxGeometry relative="1" as="geometry" />
        </mxCell>
        <mxCell id="eJFCrXcZ_60GVSOa78Gy-29" value="&lt;span style=&quot;font-size: 15px;&quot;&gt;Cliente paga em dinheiro e recebe a pizza&lt;/span&gt;" style="rounded=0;whiteSpace=wrap;html=1;" vertex="1" parent="1">
          <mxGeometry x="490" y="510" width="160" height="80" as="geometry" />
        </mxCell>
        <mxCell id="eJFCrXcZ_60GVSOa78Gy-51" value="&lt;font style=&quot;font-size: 14px;&quot;&gt;NÃO&lt;/font&gt;" style="text;html=1;strokeColor=none;fillColor=none;align=center;verticalAlign=middle;whiteSpace=wrap;rounded=0;" vertex="1" parent="1">
          <mxGeometry x="260" y="265" width="60" height="30" as="geometry" />
        </mxCell>
        <mxCell id="eJFCrXcZ_60GVSOa78Gy-52" value="&lt;span style=&quot;font-size: 14px;&quot;&gt;SIM&lt;/span&gt;" style="text;html=1;strokeColor=none;fillColor=none;align=center;verticalAlign=middle;whiteSpace=wrap;rounded=0;" vertex="1" parent="1">
          <mxGeometry x="260" y="125" width="60" height="30" as="geometry" />
        </mxCell>
        <mxCell id="eJFCrXcZ_60GVSOa78Gy-53" value="&lt;span style=&quot;font-size: 14px;&quot;&gt;SIM&lt;/span&gt;" style="text;html=1;strokeColor=none;fillColor=none;align=center;verticalAlign=middle;whiteSpace=wrap;rounded=0;" vertex="1" parent="1">
          <mxGeometry x="680" y="230" width="60" height="30" as="geometry" />
        </mxCell>
        <mxCell id="eJFCrXcZ_60GVSOa78Gy-54" value="&lt;span style=&quot;font-size: 14px;&quot;&gt;SIM&lt;/span&gt;" style="text;html=1;strokeColor=none;fillColor=none;align=center;verticalAlign=middle;whiteSpace=wrap;rounded=0;" vertex="1" parent="1">
          <mxGeometry x="410" y="370" width="60" height="30" as="geometry" />
        </mxCell>
        <mxCell id="eJFCrXcZ_60GVSOa78Gy-55" value="&lt;font style=&quot;font-size: 14px;&quot;&gt;NÃO&lt;/font&gt;" style="text;html=1;strokeColor=none;fillColor=none;align=center;verticalAlign=middle;whiteSpace=wrap;rounded=0;" vertex="1" parent="1">
          <mxGeometry x="780" y="290" width="60" height="30" as="geometry" />
        </mxCell>
        <mxCell id="eJFCrXcZ_60GVSOa78Gy-56" value="&lt;font style=&quot;font-size: 14px;&quot;&gt;NÃO&lt;/font&gt;" style="text;html=1;strokeColor=none;fillColor=none;align=center;verticalAlign=middle;whiteSpace=wrap;rounded=0;" vertex="1" parent="1">
          <mxGeometry x="570" y="470" width="60" height="30" as="geometry" />
        </mxCell>
        <mxCell id="eJFCrXcZ_60GVSOa78Gy-60" value="" style="edgeStyle=orthogonalEdgeStyle;rounded=0;orthogonalLoop=1;jettySize=auto;html=1;" edge="1" parent="1" source="eJFCrXcZ_60GVSOa78Gy-59" target="eJFCrXcZ_60GVSOa78Gy-3">
          <mxGeometry relative="1" as="geometry" />
        </mxCell>
        <mxCell id="eJFCrXcZ_60GVSOa78Gy-59" value="&lt;span style=&quot;font-size: 15px;&quot;&gt;Cliente paga em dinheiro e recebe o troco e a pizza&lt;/span&gt;" style="rounded=0;whiteSpace=wrap;html=1;" vertex="1" parent="1">
          <mxGeometry x="490" y="640" width="160" height="70" as="geometry" />
        </mxCell>
        <mxCell id="eJFCrXcZ_60GVSOa78Gy-67" style="edgeStyle=orthogonalEdgeStyle;rounded=0;orthogonalLoop=1;jettySize=auto;html=1;exitX=0.5;exitY=1;exitDx=0;exitDy=0;entryX=0.5;entryY=0;entryDx=0;entryDy=0;" edge="1" parent="1" source="eJFCrXcZ_60GVSOa78Gy-63" target="eJFCrXcZ_60GVSOa78Gy-17">
          <mxGeometry relative="1" as="geometry" />
        </mxCell>
        <mxCell id="eJFCrXcZ_60GVSOa78Gy-63" value="&lt;span style=&quot;font-size: 15px;&quot;&gt;Pizza fica pronta&lt;/span&gt;" style="rounded=0;whiteSpace=wrap;html=1;" vertex="1" parent="1">
          <mxGeometry x="780" y="430" width="160" height="60" as="geometry" />
        </mxCell>
        <mxCell id="eJFCrXcZ_60GVSOa78Gy-71" value="" style="edgeStyle=orthogonalEdgeStyle;rounded=0;orthogonalLoop=1;jettySize=auto;html=1;" edge="1" parent="1" source="eJFCrXcZ_60GVSOa78Gy-68" target="eJFCrXcZ_60GVSOa78Gy-69">
          <mxGeometry relative="1" as="geometry" />
        </mxCell>
        <mxCell id="eJFCrXcZ_60GVSOa78Gy-68" value="&lt;span style=&quot;font-size: 15px;&quot;&gt;Pizza começa a ser preparada&lt;/span&gt;" style="rounded=0;whiteSpace=wrap;html=1;" vertex="1" parent="1">
          <mxGeometry x="490" y="150" width="160" height="60" as="geometry" />
        </mxCell>
        <mxCell id="eJFCrXcZ_60GVSOa78Gy-72" value="" style="edgeStyle=orthogonalEdgeStyle;rounded=0;orthogonalLoop=1;jettySize=auto;html=1;" edge="1" parent="1" source="eJFCrXcZ_60GVSOa78Gy-69" target="eJFCrXcZ_60GVSOa78Gy-25">
          <mxGeometry relative="1" as="geometry" />
        </mxCell>
        <mxCell id="eJFCrXcZ_60GVSOa78Gy-69" value="&lt;span style=&quot;font-size: 15px;&quot;&gt;Pizza fica pronta&lt;/span&gt;" style="rounded=0;whiteSpace=wrap;html=1;" vertex="1" parent="1">
          <mxGeometry x="490" y="250" width="160" height="60" as="geometry" />
        </mxCell>
      </root>
    </mxGraphModel>
  </diagram>
</mxfile>
